Coordinates
version=1
nRows=13
nColumns=22
inDegrees=yes

Units are S.I. units (second, meters, Newtons, ...)
If the header above contains a line with 'inDegrees', this indicates whether rotational values are in degrees (yes) or radians (no).

endheader
time	pelvis_tilt	pelvis_list	pelvis_rotation	pelvis_tx	pelvis_ty	pelvis_tz	hip_flexion_r	hip_adduction_r	hip_rotation_r	knee_angle_r	ankle_angle_r	subtalar_angle_r	hip_flexion_l	hip_adduction_l	hip_rotation_l	knee_angle_l	ankle_angle_l	subtalar_angle_l	lumbar_extension	lumbar_bending	lumbar_rotation
      3.78000000	     -5.01800576	     -1.72106906	    -83.12525775	      0.01617985	      0.94370789	      0.97284258	     -1.86543148	     11.46052036	     12.14360491	    -18.01955015	     16.30732193	     -7.44195191	     27.13191620	     -8.48093840	     10.54990123	    -17.99907260	     10.28279682	      5.83825528	     -6.98682367	      2.74932122	      7.59018086
      3.79000000	     -5.02827994	     -1.62639206	    -83.45617923	      0.01866429	      0.94284737	      0.97917674	     -2.02626506	     11.33564873	     12.48221097	    -18.41630249	     16.61018655	     -6.97724313	     27.03632371	     -8.53249130	     10.26096273	    -17.41453174	     10.34935308	      5.89679170	     -6.84211145	      2.71419748	      7.63727428
      3.80000000	     -5.02643656	     -1.49019592	    -83.76451556	      0.02125658	      0.94190759	      0.98555982	     -2.14241458	     11.19571448	     12.83274602	    -18.82404121	     16.94680695	     -6.81553710	     27.03801214	     -8.53143443	      9.81584452	    -17.18116645	     10.31742949	      5.89805418	     -6.63720740	      2.67002802	      7.64389982
      3.81000000	     -5.03200003	     -1.35549586	    -84.09195680	      0.02388204	      0.94097919	      0.99198519	     -2.23766364	     11.06676747	     13.20757821	    -19.27921604	     17.25565981	     -6.58022321	     27.05241586	     -8.52729266	      9.24866528	    -17.21959155	     10.23289633	      5.84828755	     -6.42786523	      2.64174321	      7.68349770
      3.82000000	     -5.04557796	     -1.22142880	    -84.41305964	      0.02655099	      0.94006078	      0.99845366	     -2.31915352	     10.94966730	     13.56219314	    -19.76002849	     17.53644612	     -6.37111096	     27.08178779	     -8.51505763	      8.61110438	    -17.48516658	     10.04963083	      5.73347567	     -6.21182802	      2.62652697	      7.71725810
      3.83000000	     -5.09536646	     -1.05532549	    -84.71218090	      0.02929064	      0.93910635	      1.00491397	     -2.33841320	     10.87045837	     13.89389204	    -20.27650169	     17.78509937	     -5.92642153	     27.15987961	     -8.50729719	      8.02056047	    -17.91308496	      9.69548067	      5.34364107	     -5.95359175	      2.65919562	      7.74028037
      3.84000000	     -5.10013941	     -0.91578402	    -85.03627940	      0.03197127	      0.93828244	      1.01142086	     -2.37257049	     10.75751119	     14.24816329	    -20.83098432	     17.96915578	     -5.79565935	     27.14887625	     -8.47103207	      7.39565500	    -18.37284374	      9.25559554	      5.10022344	     -5.72895003	      2.63230489	      7.79145281
      3.85000000	     -5.15194547	     -0.74099676	    -85.30925965	      0.03473102	      0.93743610	      1.01786463	     -2.32622609	     10.69846357	     14.54088627	    -21.43323856	     18.13997947	     -5.49104047	     27.19976581	     -8.43786574	      6.90761804	    -18.89019292	      8.60921335	      4.36430626	     -5.46474218	      2.66656520	      7.78521002
      3.86000000	     -5.15958783	     -0.57794989	    -85.57001858	      0.03748246	      0.93675562	      1.02428202	     -2.27367954	     10.60208970	     14.82552448	    -22.06307749	     18.21909513	     -5.23913388	     27.21251847	     -8.34914746	      6.49316918	    -19.38634715	      7.78721547	      3.67117120	     -5.22470616	      2.64240079	      7.79029095
      3.87000000	     -5.14545668	     -0.40555441	    -85.80410053	      0.04024495	      0.93620431	      1.03066341	     -2.16359014	     10.49583816	     15.08047561	    -22.76723285	     18.25323203	     -5.00461711	     27.21733144	     -8.22169687	      6.15462353	    -19.82424212	      6.87408340	      2.95963808	     -4.97988141	      2.59142508	      7.74481084
      3.88000000	     -5.10123438	     -0.23466097	    -85.98765447	      0.04309138	      0.93581578	      1.03701950	     -2.02391172	     10.36365208	     15.28136911	    -23.50984546	     18.20354539	     -4.72135051	     27.23408436	     -8.02527283	      5.94754259	    -20.24972362	      5.87065633	      2.18818786	     -4.74072834	      2.50662630	      7.66218376
      3.89000000	     -5.02871942	     -0.07875921	    -86.12722328	      0.04602042	      0.93561789	      1.04338907	     -1.86663114	     10.20853142	     15.43388659	    -24.29879595	     18.06904171	     -4.39368582	     27.23871059	     -7.77054989	      5.85122295	    -20.65696080	      4.86985430	      1.49652820	     -4.51849675	      2.39270161	      7.53603688
      3.90000000	     -4.92014022	      0.06448225	    -86.23166260	      0.04904285	      0.93559786	      1.04979486	     -1.67780219	     10.02057340	     15.52871166	    -25.15795093	     17.87034756	     -4.03274511	     27.22598557	     -7.45396125	      5.84439757	    -21.05423626	      3.92198531	      0.95331595	     -4.30676082	      2.24372652	      7.38146859
